<svg xmlns="http://www.w3.org/2000/svg" viewBox="0 0 1000 420" role="img" aria-labelledby="t d"><title id="t">ELA Transfer</title><desc id="d">Logo ELA Transfer bleu nuit et bleu cyan</desc><defs><linearGradient id="g" x1="0" y1="0" x2="1" y2="1"><stop offset="0" stop-color="#0b2f63"/><stop offset="0.5" stop-color="#0e5fb8"/><stop offset="1" stop-color="#071d43"/></linearGradient><linearGradient id="c" x1="0" y1="0" x2="1" y2="0"><stop offset="0" stop-color="#1bbff1"/><stop offset="1" stop-color="#55d9ff"/></linearGradient></defs><g fill="url(#g)"><path d="M72 92c0-24 19-43 43-43h315l-38 73H146c-14 0-27 7-34 19l-9 15h260l-34 65H68l-12 23c-8 14 3 31 19 31h285l38 72H91c-58 0-95-62-68-113l49-93c0-1 0-2 0-3V92z"/><path d="M444 49h78v219c0 14 11 25 25 25h105l-39 72h-105c-35 0-64-29-64-64z"/><path d="M646 347 779 75c13-27 52-35 75-14 6 5 11 12 15 20l100 266h-88l-24-67H740l-31 67zm128-139h58l-27-78z"/></g><path d="M630 315c78-70 164-116 288-139 26-5 45-7 58-7-21 8-45 21-72 37-96 57-172 97-274 131z" fill="url(#c)"/><text x="83" y="410" font-family="Arial,Helvetica,sans-serif" font-size="88" font-weight="700" letter-spacing="26" fill="#0b2f63">TRANSFER</text></svg>